<svg width="100" height="100" viewBox="0 0 100 100" fill="none" xmlns="http://www.w3.org/2000/svg">
<path fill-rule="evenodd" clip-rule="evenodd" d="M28.4107 0.458191C26.8288 1.30783 23.5715 5.48784 21.7278 9.03343C19.6981 12.9363 18.8903 16.1794 18.7055 21.1674C18.5155 26.2859 19.1252 29.8853 20.8676 33.9308C22.8485 38.53 27.3227 44.2122 29.2929 44.6304C30.4803 44.8826 32.1294 44.0692 32.5382 43.03C33.1398 41.4999 32.8764 40.8161 30.7265 38.3266C26.6761 33.637 24.6932 28.4231 24.676 22.4187C24.6582 16.0536 26.9136 10.4102 31.3285 5.77345C32.2026 4.85561 32.6349 4.07824 32.7557 3.20764C32.9068 2.11868 32.8026 1.83651 31.9424 1.00501C30.877 -0.0248145 29.6602 -0.213137 28.4107 0.458191ZM68.0981 0.965911C66.5317 2.48 66.7595 3.57427 69.2417 6.46011C75.7557 14.0337 77.1236 24.6179 72.69 33.1415C71.9913 34.4848 70.787 36.3352 70.0139 37.2533C69.2411 38.1715 68.2809 39.358 67.8803 39.8901C65.9003 42.5216 68.6087 45.8479 71.4333 44.2538C74.3916 42.5836 79.0586 35.1658 80.4472 29.9266C83.0201 20.2192 80.0463 8.85449 73.1411 2.00669C70.7867 -0.328258 69.6744 -0.55756 68.0981 0.965911ZM34.6877 9.44667C33.2744 10.5212 30.7469 14.5054 29.9214 16.9599C28.3793 21.5456 29.1447 27.6864 31.7621 31.7313C34.4285 35.8509 36.5489 36.9242 38.6482 35.2168C40.1039 34.0331 40.0401 32.4746 38.4618 30.6602C37.8116 29.9125 36.8294 28.3859 36.279 27.2675C35.3825 25.4459 35.2803 24.941 35.2987 22.4187C35.3233 18.981 36.0625 16.9373 38.1828 14.4438C39.3476 13.0742 39.644 12.4842 39.644 11.536C39.644 9.13353 36.7204 7.9013 34.6877 9.44667ZM61.5696 9.14855C60.7398 9.61591 59.9514 11.2714 60.1657 12.097C60.268 12.4908 60.8738 13.4174 61.512 14.156C65.6757 18.9729 65.8485 24.9786 61.966 29.9369C60.0453 32.3901 59.8793 32.8775 60.488 34.2852C60.9841 35.4336 61.9896 36.0267 63.4401 36.0267C65.3207 36.0267 68.5744 31.8989 69.9065 27.8234C70.8667 24.885 70.9977 20.6384 70.2175 17.7426C69.533 15.2027 67.7521 12.0503 66.0068 10.2901C64.7663 9.03874 64.3553 8.81226 63.3382 8.82008C62.677 8.8254 61.8809 8.97305 61.5696 9.14855ZM47.967 13.5169C43.6463 14.553 40.6175 18.1921 40.6133 22.3524C40.61 25.5942 42.4204 28.6205 45.3589 30.2851C47.1094 31.2767 50.5191 31.6255 52.6977 31.0359C54.7434 30.4822 57.0534 28.6443 58.2204 26.6419C59.1123 25.1115 59.2226 24.6445 59.2171 22.4187C59.2116 20.3215 59.0709 19.658 58.3479 18.3238C56.3764 14.6859 51.844 12.5872 47.967 13.5169ZM51.6214 19.6549C53.432 20.6888 53.7735 22.9408 52.3463 24.4368C50.3298 26.5505 46.7638 25.3211 46.7638 22.5119C46.7638 20.9847 47.1741 20.217 48.3091 19.6217C49.4764 19.0095 50.5091 19.0198 51.6214 19.6549ZM6.53657 47.4274C3.95825 48.3165 2.33787 49.7749 0.770875 52.6163L0 54.0143V73.4096C0 92.5606 0.00873823 92.8231 0.691586 94.2509C1.68447 96.3265 3.50194 98.129 5.61133 99.1303L7.44337 100H50H92.5566L94.3955 99.1272C96.478 98.1387 97.8188 96.8045 99.1107 94.4357L100 92.805V73.5661V54.3271L99.0939 52.5431C98.5712 51.5145 97.5084 50.1693 96.5838 49.3654C93.6252 46.7943 97.1576 46.9741 49.8615 46.9895C15.2767 47.0007 7.54757 47.0789 6.53657 47.4274ZM92.3058 53.4825C92.9388 53.9192 93.4867 54.6575 93.6984 55.3595C93.9346 56.1444 94.0155 62.2404 93.9492 74.294L93.8511 92.0714L92.6424 93.1419L91.4333 94.2127H50.1356C12.043 94.2127 8.76634 94.172 7.91747 93.6871C5.8932 92.5312 5.94207 93.0737 6.05048 73.0436L6.14887 54.8464L6.94013 54.0325C7.3754 53.5848 8.17637 53.0924 8.72006 52.9385C9.28382 52.7786 27.2392 52.6807 50.4854 52.7104L91.2621 52.763L92.3058 53.4825ZM13.0819 59.4647L12.1359 60.3791V73.4725C12.1359 88.0537 12.0761 87.6499 14.3298 88.2552C16.2152 88.7614 25.8443 88.6741 27.1696 88.1388C29.4346 87.2238 29.9243 84.6646 28.0997 83.2772C27.3417 82.7009 26.8019 82.6381 22.61 82.6381H17.9612V71.5086V60.3791L17.0152 59.4647C16.3696 58.8406 15.745 58.5503 15.0485 58.5503C14.3521 58.5503 13.7275 58.8406 13.0819 59.4647ZM34.178 58.987C32.5657 59.8507 32.5479 60.0087 32.5356 73.6683L32.5243 86.4402L33.4702 87.3546C34.8265 88.6656 36.6699 88.6453 37.8353 87.3064L38.6731 86.3441V73.7187C38.6731 66.437 38.5421 60.7604 38.3634 60.3062C38.0375 59.4779 36.5207 58.5425 35.534 58.5613C35.2136 58.5675 34.6036 58.759 34.178 58.987ZM44.7858 59.0196C44.3207 59.2636 43.7498 59.9083 43.5168 60.452C43.1204 61.3773 43.346 62.2545 47.0421 74.151C51.3349 87.9677 51.4767 88.269 53.6961 88.269C55.5382 88.269 56.3576 87.3202 57.4291 83.9469C61.6712 70.5936 64.2395 62.0465 64.2395 61.2838C64.2395 60.701 63.9029 60.0538 63.2935 59.4647C62.055 58.2675 60.699 58.2484 59.4175 59.4106C58.4799 60.2605 57.8372 62.0358 54.5362 72.8922C54.1521 74.156 53.7948 75.1415 53.7424 75.082C53.69 75.0226 52.6647 71.8064 51.4641 67.9352C48.9993 59.9903 48.7644 59.445 47.5819 58.9241C46.4948 58.4452 45.8359 58.4677 44.7858 59.0196ZM69.7767 58.987C68.1647 59.8504 68.1466 60.0109 68.1343 73.6393L68.123 86.382L69.0673 87.4037L70.0116 88.4254H77.8317H85.6518L86.6314 87.3658C87.4579 86.4711 87.5819 86.1298 87.4246 85.176C87.3155 84.5128 86.8926 83.7549 86.4006 83.3419C85.6003 82.67 85.3078 82.6381 79.9171 82.6381H74.2718V78.7277V74.8174H79.1081C83.743 74.8174 83.9819 74.7861 84.8453 74.0685C86.0502 73.0665 86.1078 71.1585 84.9686 69.9861C84.2006 69.1958 84.1327 69.1865 79.2317 69.1865H74.2718V66.8597V64.5328L80.2877 64.4352L86.3032 64.3376L87.0838 63.4598C88.2 62.2045 88.1353 60.6413 86.9181 59.4647L85.9722 58.5503L78.2612 58.5613C72.4835 58.5697 70.3563 58.6764 69.7767 58.987Z" fill="url(#paint0_linear_11_25)"/>
<defs>
<linearGradient id="paint0_linear_11_25" x1="50" y1="0" x2="50" y2="100" gradientUnits="userSpaceOnUse">
<stop stop-color="#5E55CD"/>
<stop offset="1" stop-color="#A782D6" stop-opacity="0.81"/>
</linearGradient>
</defs>
</svg>
