<svg width="100" height="100" viewBox="0 0 100 100" fill="none" xmlns="http://www.w3.org/2000/svg">
<path fill-rule="evenodd" clip-rule="evenodd" d="M19.2466 1.02544L18.4375 2.05054V11.3728C18.4375 21.9747 18.5081 22.358 20.5822 23.0205C21.3016 23.2504 23.175 23.3544 25.2394 23.2791C29.1334 23.1368 29.7556 22.8199 30.3091 20.6953C30.7225 19.1077 30.7141 3.85413 30.2987 2.25916C29.7672 0.218284 29.1909 0 24.3331 0H20.0556L19.2466 1.02544ZM70.4547 0.81815L69.6875 1.63597V11.3374C69.6875 17.6497 69.8053 21.2742 70.025 21.7118C70.5975 22.8525 72.2284 23.3281 75.5684 23.3281C77.2669 23.3281 79.0903 23.1668 79.6203 22.9698C81.5144 22.2657 81.5625 21.9857 81.5625 11.6537C81.5625 2.13152 81.4784 1.35969 80.3397 0.427238C80.0066 0.154632 78.4278 0.0176632 75.5328 0.0106648C71.3659 0.000333757 71.1959 0.0273278 70.4547 0.81815ZM1.45906 13.3453C1.01219 13.7206 0.501875 14.5827 0.325 15.2616C0.1125 16.077 0.00281147 30.5418 0.00187397 57.871L0 99.2457L0.984063 99.6116C2.37688 100.129 97.6231 100.129 99.0159 99.6116L100 99.2457L99.9981 57.871C99.9972 30.5418 99.8875 16.077 99.675 15.2616C99.0647 12.9184 98.3941 12.6638 92.8328 12.6638C89.4419 12.6638 87.8222 12.7868 87.5625 13.0637C87.315 13.3277 87.1875 14.7467 87.1875 17.2378C87.1875 22.0387 86.5594 24.2022 84.58 26.2168C82.6459 28.1857 80.9066 28.6602 75.625 28.6602C70.5475 28.6602 68.6656 28.1793 66.8338 26.4147C64.6578 24.3182 64.2737 23.1311 64.0781 17.8996C63.9444 14.3228 63.8025 13.2347 63.4375 12.9894C62.8128 12.5692 37.1869 12.5692 36.5625 12.9894C36.1956 13.2364 36.0562 14.3444 35.9212 18.0913C35.7622 22.5056 35.6838 22.9958 34.9119 24.4005C33.0069 27.8674 31.0366 28.6639 24.3962 28.6522C19.1503 28.6426 17.6312 28.3513 15.7909 27.0009C13.6775 25.4503 13.0394 23.4964 12.8744 18.0709C12.7019 12.4035 12.9919 12.6638 6.8475 12.6638C2.71094 12.6638 2.19375 12.7291 1.45906 13.3453ZM92.7169 37.7958L93.5938 38.6003V65.152V91.7037L92.7169 92.5082L91.84 93.3123H50H8.16L7.28312 92.5082L6.40625 91.7037V65.152V38.6003L7.28312 37.7958L8.16 36.9917H50H91.84L92.7169 37.7958ZM15.4547 45.808C14.6966 46.6162 14.6875 46.6982 14.6875 52.6548C14.6875 58.6115 14.6966 58.6935 15.4547 59.5016L16.2216 60.3198H24.0625H31.9034L32.6497 59.5239C33.6641 58.4422 33.8278 57.1918 33.7019 51.4871C33.5937 46.6032 33.5928 46.5968 32.7169 45.7937C31.8409 44.9905 31.8344 44.9899 24.0309 44.9899H16.2216L15.4547 45.808ZM41.4484 45.6807L40.625 46.3712V52.5275C40.625 58.6195 40.6331 58.6925 41.3922 59.5016L42.1591 60.3198H50H57.8409L58.6078 59.5016C59.3669 58.6925 59.375 58.6195 59.375 52.5275V46.3712L58.5516 45.6807C57.7691 45.0242 57.3453 44.9899 50 44.9899C42.6547 44.9899 42.2309 45.0242 41.4484 45.6807ZM66.9706 45.794L66.0938 46.5985V52.6548V58.7111L66.9706 59.5156C67.8469 60.3194 67.8519 60.3198 75.6566 60.3198H83.4659L84.2328 59.5016C84.9909 58.6935 85 58.6115 85 52.6548C85 46.6982 84.9909 46.6162 84.2328 45.808L83.4659 44.9899H75.6566C67.8519 44.9899 67.8469 44.9902 66.9706 45.794ZM16.0938 70.7201C14.7847 71.5206 14.7078 71.9315 14.6975 78.1744L14.6875 84.1981L15.4941 85.0062L16.3003 85.814H24.0806H31.8609L32.7272 84.8909C33.5841 83.9781 33.595 83.9141 33.6959 79.0809C33.8153 73.3705 33.6603 72.1911 32.6497 71.1133L31.9034 70.3175L24.3109 70.3275C19.1887 70.3345 16.5153 70.4621 16.0938 70.7201ZM42.0312 70.7024C40.6984 71.4799 40.625 71.8688 40.625 78.1547V84.1981L41.4316 85.0062L42.2378 85.814H50H57.7622L58.5684 85.0062L59.375 84.1981V78.2847C59.375 75.0325 59.2875 72.1288 59.1809 71.8322C58.7044 70.5078 57.5334 70.3172 49.9375 70.3275C45.2738 70.3342 42.4316 70.4688 42.0312 70.7024ZM67.3 70.8041C66.0894 71.7085 65.8875 72.9129 65.9934 78.6013C66.0937 83.9608 66.095 83.9691 66.9603 84.8909L67.8266 85.814H75.6591H83.4916L84.2459 84.8789C84.9825 83.9654 84.9997 83.8075 84.99 78.0471C84.9797 71.8848 84.8994 71.4796 83.5363 70.7051C82.4428 70.0842 68.1472 70.1712 67.3 70.8041Z" fill="url(#paint0_linear_11_21)"/>
<defs>
<linearGradient id="paint0_linear_11_21" x1="50" y1="0" x2="50" y2="100" gradientUnits="userSpaceOnUse">
<stop stop-color="#5E55CD"/>
<stop offset="1" stop-color="#A782D6" stop-opacity="0.61"/>
</linearGradient>
</defs>
</svg>
