<svg width="100" height="100" viewBox="0 0 100 100" fill="none" xmlns="http://www.w3.org/2000/svg">
<path fill-rule="evenodd" clip-rule="evenodd" d="M0.913843 0.974571L0.000409356 1.94914V28.8314C0.000409356 58.425 -0.077403 57.238 1.91259 57.9782C2.60071 58.2339 9.23069 58.3476 23.4878 58.3476H44.0693L49.6877 61.3484C56.0777 64.7612 56.9592 64.9646 58.2536 63.3232L59.0627 62.2976V32.1746V2.0515L58.2536 1.02592L57.4446 0H29.6359H1.82728L0.913843 0.974571ZM33.2787 13.4623C35.5209 14.5622 36.6249 15.6798 37.8309 18.0708C38.7859 19.9642 38.8899 20.435 38.8837 22.8389C38.8781 25.0638 38.7396 25.7887 38.0496 27.209C36.8503 29.6783 35.8628 30.7932 33.9153 31.8791L32.1893 32.8414L32.1884 34.9472C32.1878 37.2071 31.8662 38.19 30.8443 39.0569C30.2 39.6034 30.2003 39.605 31.1081 40.4382C33.0709 42.2394 31.8309 45.6779 29.219 45.6779C27.5834 45.6779 26.4206 44.4312 26.4206 42.6771C26.4206 41.5398 26.5937 41.1141 27.33 40.4382C28.2378 39.605 28.2381 39.6034 27.5937 39.0569C26.4716 38.105 26.2503 37.1648 26.2503 33.3468C26.2503 28.2296 26.7078 27.4431 30.0237 26.8609C30.6918 26.7439 31.5084 26.2558 32.055 25.647C32.8353 24.7777 32.969 24.365 32.969 22.8236C32.969 21.2499 32.845 20.8855 32.0025 19.9866C30.1725 18.0341 27.2756 18.4082 25.9253 20.7714C25.5897 21.3582 25.3147 22.1838 25.3141 22.6055C25.3112 24.3106 23.8153 26.0064 22.3138 26.0064C21.3916 26.0064 20.0819 25.0211 19.7013 24.0406C18.926 22.0437 20.2419 17.769 22.3116 15.5605C25.24 12.436 29.5184 11.6175 33.2787 13.4623ZM65.0714 43.9191L65.1564 50.179L76.0435 50.3457L86.931 50.5124L87.5279 51.2996C88.435 52.4955 88.3254 54.5137 87.2982 55.5296L86.4713 56.3471H75.7357H65.0001V59.5146V62.682H75.601H86.2022L87.1635 63.5452C88.4116 64.6655 88.4994 66.5146 87.371 67.9146L86.6172 68.8502L74.0117 68.9446C61.7277 69.0363 61.3705 69.0576 60.0002 69.7761C58.9199 70.3426 58.0361 70.5139 56.1874 70.5153L53.7805 70.5173L47.8712 67.3798C44.2237 65.4434 41.7659 64.3224 41.4496 64.4521C40.9849 64.6422 40.9377 66.1946 40.9377 81.3173V97.973L41.7468 98.9986C43.0399 100.638 43.9371 100.435 50.0818 97.1071L55.4689 94.1898L76.7188 94.023C99.6156 93.8433 98.8987 93.9033 99.6653 92.1082C99.8941 91.5724 100 83.1554 100 65.5191V39.7137L99.2459 38.7782L98.4919 37.8426L81.7391 37.7509L64.9864 37.6589L65.0714 43.9191ZM87.3579 76.1703C87.9226 76.7725 88.125 77.349 88.125 78.3525C88.125 79.3561 87.9226 79.9326 87.3579 80.5347L86.591 81.3533H70.4689H54.3467L53.5799 80.5347C53.0152 79.9326 52.8127 79.3561 52.8127 78.3525C52.8127 77.349 53.0152 76.7725 53.5799 76.1703L54.3467 75.3518H70.4689H86.591L87.3579 76.1703Z" fill="url(#paint0_linear_11_29)"/>
<defs>
<linearGradient id="paint0_linear_11_29" x1="50" y1="0" x2="50" y2="100" gradientUnits="userSpaceOnUse">
<stop stop-color="#5E55CD"/>
<stop offset="1" stop-color="#A782D6" stop-opacity="0.86"/>
</linearGradient>
</defs>
</svg>
