<svg width="100" height="100" viewBox="0 0 100 100" fill="none" xmlns="http://www.w3.org/2000/svg">
<path fill-rule="evenodd" clip-rule="evenodd" d="M79.4207 3.00697C70.4047 7.40814 54.9465 14.9824 35.9025 24.3302C4.78195 39.606 6.69921 38.7494 3.63236 38.7494C1.37034 38.7494 0.826523 38.8967 0.459987 39.6078C-0.206442 40.902 -0.125276 55.3909 0.551833 55.9391C0.845746 56.1765 2.22175 56.6004 3.61057 56.8804C9.8985 58.149 13.6638 62.7405 13.6745 69.1528C13.6809 73.0204 12.4677 75.9662 9.86304 78.4056C7.70099 80.4309 6.07123 81.2001 3.06418 81.6146C1.57412 81.8201 0.705623 82.1845 0.429653 82.7202C0.203238 83.1596 0.0178358 86.9168 0.0178358 91.069C0.0178358 98.3671 0.0494483 98.6409 0.967497 99.3089C1.81292 99.9245 7.17212 100 50 100C92.8279 100 98.1871 99.9245 99.0325 99.3089C99.9506 98.6409 99.9822 98.3671 99.9822 91.069C99.9822 86.9168 99.7968 83.1596 99.5704 82.7202C99.2944 82.1845 98.4259 81.8201 96.9358 81.6146C93.9288 81.2001 92.299 80.4309 90.137 78.4056C87.5323 75.9662 86.3191 73.0204 86.3255 69.1528C86.3362 62.7405 90.1015 58.149 96.3894 56.8804C97.7782 56.6004 99.1547 56.1765 99.4482 55.9391C100.125 55.3909 100.206 40.902 99.54 39.6078C99.1551 38.8608 98.6185 38.7494 95.3988 38.7494H91.7001L89.4539 36.3402C87.7412 34.5027 87.0385 33.3251 86.4942 31.3802C84.9298 25.7887 87.2115 19.6649 91.8739 16.9424C92.7873 16.4093 93.6511 15.6574 93.7933 15.2722C94.165 14.2664 87.6964 0.266227 86.7403 0.00657723C86.3259 -0.106159 83.0318 1.24402 79.4207 3.00697ZM87.0663 8.28784C89.6504 13.883 89.6453 13.5252 87.1803 15.9202C85.8859 17.1785 84.4766 19.1705 83.6572 20.8993C82.4444 23.4594 82.2893 24.2157 82.2727 27.6661C82.2543 31.3638 82.3389 31.7246 84.0233 35.1502L85.7928 38.7494H50.9368C29.9623 38.7494 16.242 38.5883 16.4863 38.345C16.7093 38.1227 22.2749 35.306 28.8537 32.0859C50.0034 21.7332 61.0572 16.3103 73.0687 10.3952C79.5301 7.21329 84.9367 4.60171 85.0836 4.5915C85.2306 4.58173 86.123 6.24482 87.0663 8.28784ZM96.1374 47.7989V52.8534L94.749 53.1291C92.2879 53.6173 89.1407 55.4215 87.0299 57.5555C81.003 63.6478 80.8044 73.8331 86.5822 80.4779C88.2163 82.3567 93.4674 85.3531 95.1266 85.3531C96.1331 85.3531 96.1374 85.3744 96.1374 90.6793V96.0054H50H3.86262V90.7844V85.5631L5.97938 85.0406C13.4242 83.2036 18.5698 75.1371 17.5039 66.9757C16.6341 60.3171 11.3424 54.3372 5.25101 53.1291L3.86262 52.8534V47.7989V42.744H50H96.1374V47.7989ZM70.3163 46.8376C69.8331 47.5539 69.6511 48.9236 69.6511 51.8428C69.6511 56.1055 70.25 57.8347 71.726 57.8347C73.2255 57.8347 73.4959 56.9084 73.4959 51.7696C73.4959 47.2805 73.4113 46.7231 72.6697 46.3103C71.4688 45.6427 71.06 45.7342 70.3163 46.8376ZM24.0264 52.5973C23.7444 52.8903 23.5137 53.5494 23.5137 54.062C23.5137 54.5747 23.7444 55.2338 24.0264 55.5267C24.7616 56.2906 55.1601 56.2906 55.8953 55.5267C56.6801 54.7114 56.5054 53.0376 55.5818 52.5241C54.3361 51.8317 24.6975 51.9001 24.0264 52.5973ZM70.5055 64.0485C69.7737 64.8089 69.6511 65.5279 69.6511 69.0538C69.6511 73.419 70.2389 75.1447 71.726 75.1447C73.2255 75.1447 73.4959 74.2184 73.4959 69.0795C73.4959 64.5905 73.4113 64.033 72.6697 63.6202C71.5671 63.0073 71.4936 63.0219 70.5055 64.0485ZM24.2613 67.6348C23.4031 68.1541 23.2711 69.8327 24.0264 70.6175C24.7616 71.3813 55.1601 71.3813 55.8953 70.6175C56.6801 69.8021 56.5054 68.1284 55.5818 67.6148C54.4668 66.9948 25.2883 67.0134 24.2613 67.6348ZM70.5055 81.3585C69.7737 82.1188 69.6511 82.8378 69.6511 86.3637C69.6511 90.729 70.2389 92.4546 71.726 92.4546C73.2255 92.4546 73.4959 91.5283 73.4959 86.3895C73.4959 81.9004 73.4113 81.343 72.6697 80.9302C71.5671 80.3172 71.4936 80.3319 70.5055 81.3585ZM24.2613 82.7255C23.4031 83.2448 23.2711 84.9235 24.0264 85.7082C24.7616 86.472 55.1601 86.472 55.8953 85.7082C56.6801 84.8928 56.5054 83.2191 55.5818 82.7056C54.4668 82.0855 25.2883 82.1042 24.2613 82.7255Z" fill="url(#paint0_linear_11_17)"/>
<defs>
<linearGradient id="paint0_linear_11_17" x1="50" y1="0" x2="50" y2="100" gradientUnits="userSpaceOnUse">
<stop stop-color="#5E55CD"/>
<stop offset="1" stop-color="#A782D6" stop-opacity="0.83"/>
</linearGradient>
</defs>
</svg>
