<svg width="720" height="445" viewBox="0 0 720 445" fill="none" xmlns="http://www.w3.org/2000/svg">
<path fill-rule="evenodd" clip-rule="evenodd" d="M476.805 4.351C477.58 6.743 483.374 24.001 489.681 42.701C495.988 61.401 501.433 77.654 501.78 78.819C502.294 80.542 501.801 81.175 499.137 82.212C487.119 86.89 462.311 100.775 445.987 111.959C439.403 116.469 415.84 133.931 404.729 142.534L402.361 144.368V124.784C402.361 108.044 402.143 105.201 400.861 105.201C399.576 105.201 399.361 108.182 399.361 126.03V146.858L388.611 155.947C382.698 160.946 371.561 170.69 363.861 177.599C356.161 184.508 349.619 190.17 349.324 190.181C349.028 190.192 348.685 188.874 348.562 187.251C348.438 185.629 347.448 181.467 346.362 178.001C345.276 174.536 344.381 170.607 344.374 169.269C344.367 167.932 343.511 163.432 342.471 159.269C341.432 155.107 340.098 149.076 339.507 145.868C337.974 137.55 334.219 130.007 329.028 124.816C323.964 119.752 318.227 116.586 306.156 112.196C301.594 110.537 296.642 108.284 295.151 107.19C290.269 103.606 290.249 102.925 295.717 126.701C297.614 134.951 301.484 151.826 304.317 164.201C307.15 176.576 310.614 191.651 312.016 197.701C313.417 203.751 314.9 210.345 315.311 212.355L316.057 216.008L307.925 216.355C300.464 216.672 299.384 216.995 294.827 220.266C286.46 226.274 283.104 232.835 285.297 238.9C286.216 241.442 286.24 242.642 285.391 243.665C284.501 244.737 284.724 245.181 286.417 245.719C288.461 246.368 288.345 246.641 284.261 250.803C281.887 253.222 279.672 255.201 279.338 255.201C278.084 255.201 275.169 247.765 276.278 247.395C276.881 247.194 277.131 246.638 276.835 246.159C276.539 245.68 275.703 245.516 274.977 245.795C273.419 246.393 267.051 239.511 267.896 238.144C268.215 237.628 270.25 236.923 272.418 236.576L276.361 235.945V228.524C276.361 220.124 274.626 215.632 270.822 214.186C267.123 212.78 274.728 218.821 275.837 221.739C276.627 223.815 266.905 219.386 264.382 220.69C260.597 222.648 259.361 222.597 259.361 220.487C259.361 218.907 259.234 218.9 257.743 220.391C255.522 222.611 256.815 224.201 260.842 224.201C263.816 224.201 264.343 224.617 265.391 227.793C266.205 230.257 266.253 231.709 265.547 232.415C264.981 232.981 264.79 234.155 265.123 235.022C265.594 236.251 264.969 236.121 262.294 234.436C256.04 230.495 242.98 224.517 234.556 221.739C229.988 220.233 224.251 217.473 221.806 215.607C219.361 213.741 217.361 212.779 217.361 213.469C217.361 214.159 219.186 219.893 221.416 226.212C223.646 232.531 227.221 243.101 229.36 249.701C231.499 256.301 235.074 267.266 237.305 274.068C239.536 280.87 241.361 286.862 241.361 287.385C241.361 287.908 240.455 288.048 239.348 287.697C235.73 286.549 226.939 287.042 223.232 288.601C214.404 292.313 209.798 298.796 210.682 306.263L211.239 310.967L203.55 316.432C191.885 324.723 168.647 339.201 167.005 339.201C166.651 339.201 166.361 336.538 166.361 333.283C166.361 328.308 163.068 315.191 158.873 303.458C158.629 302.774 160.872 300.409 163.859 298.202C171.642 292.453 174.179 289.526 177.617 282.332C180.243 276.838 180.659 274.845 180.649 267.832C180.629 254.15 174.665 244.03 163.083 238.024C158.571 235.683 150.448 235.057 142.688 236.45L138.516 237.2L135.298 226.95C128.739 206.056 128.911 209.25 133.988 202.57C140.204 194.391 146.888 180.169 148.915 170.814C151.173 160.385 150.466 148.504 146.932 137.486C143.85 127.88 139.469 121.642 133.478 118.328C129.632 116.201 128.921 116.098 126.608 117.328C119.825 120.937 113.088 135.966 111.81 150.338C111.034 159.077 112.187 166.299 116.951 182.532L120.423 194.364L114.52 201.032C101.306 215.961 90.3778 234.295 87.4838 246.394C85.6048 254.246 86.0698 266.339 88.5028 272.913C92.5448 283.835 101.156 294.534 110.264 299.952C120.634 306.12 135.102 308.523 146.187 305.92C150.778 304.841 152.623 304.745 152.913 305.567C158.733 322.083 162.375 340.501 160.244 342.647C159.328 343.57 143.328 349.867 139.861 350.67L136.861 351.364L139.044 349.032C147.07 340.463 143.118 326.931 131.861 324.436C124.532 322.812 118.368 325.67 115.723 331.919C113.844 336.358 114.016 340.272 116.36 346.44C117.46 349.334 118.36 351.82 118.36 351.964C118.361 352.109 116.68 351.525 114.625 350.667C109.806 348.653 106.673 345.685 104.106 340.701C101.337 335.327 100.616 338.031 103.326 343.628C106.013 349.18 110.704 352.794 117.535 354.577C120.464 355.341 124.563 356.972 126.643 358.202C132.36 361.58 141.343 361.973 148.768 359.17C155.329 356.693 162.829 350.025 164.525 345.162C165.092 343.533 165.869 342.201 166.251 342.201C168.308 342.201 199.07 323.024 211.711 313.861C212.406 313.357 214.825 314.011 217.746 315.492L222.621 317.963L211.741 325.683C205.757 329.928 196.664 335.944 191.534 339.051C186.404 342.159 179.429 346.475 176.034 348.643C169.277 352.959 152.064 360.935 142.761 364.062C132.468 367.522 121.556 368.522 113.777 366.718C89.3958 361.064 81.0208 343.261 90.3458 316.911C91.9358 312.419 93.0698 308.576 92.8658 308.373C92.0668 307.573 87.5328 318.054 85.9908 324.265C83.9308 332.563 83.9128 341.331 85.9438 348.167C87.9228 354.832 95.2228 362.383 103.861 366.702C114.495 372.017 130.648 371.436 148.361 365.1C153.036 363.428 158.211 361.368 159.861 360.522C169.548 355.557 180.487 349.568 184.649 346.953C187.282 345.298 189.676 344.183 189.968 344.474C190.94 345.447 188.391 356.511 186.785 358.285C184.589 360.711 165.705 371.209 154.861 376.032C131.9 386.244 114.506 388.068 96.6708 382.136C88.4218 379.393 79.1458 373.268 75.3918 368.085C64.0808 352.471 66.4078 320.582 80.8408 293.396C82.6818 289.929 83.6698 287.265 83.0358 287.476C81.0048 288.153 73.4748 303.396 70.3278 313.201C64.1168 332.55 64.0858 351.769 70.2448 363.97C79.4998 382.305 107.424 392.517 132.283 386.658C148.078 382.935 173.535 371.711 184.361 363.698L187.861 361.108L188.165 367.401C188.483 373.986 188.647 373.662 182.846 377.951C178.737 380.988 154.456 393.406 147.146 396.208C134.315 401.127 115.154 404.599 105.708 403.716C99.7518 403.16 98.4678 402.72 98.0398 401.083C97.6348 399.533 98.1528 398.993 100.491 398.525C104.557 397.712 104.068 394.554 99.9518 395.041C97.4278 395.34 97.1498 395.116 97.6518 393.194C97.9668 391.992 97.9828 390.379 97.6878 389.61C96.7808 387.246 95.3608 389.132 95.3608 392.701C95.3608 396.581 95.1598 396.773 90.1028 397.722L86.3608 398.424V394.812C86.3608 392.826 85.9108 391.201 85.3608 391.201C84.8108 391.201 84.3608 393.001 84.3608 395.201C84.3608 400.237 82.9918 400.356 74.4078 396.067C58.7528 388.244 48.6138 371.274 47.0068 350.201C46.3258 341.271 47.7398 326.362 50.1728 316.821C51.7978 310.449 52.1798 309.859 55.3498 308.821C57.4188 308.144 60.0768 305.988 62.0668 303.373C66.1798 297.97 66.6548 291.116 63.2188 286.748L61.0768 284.024L66.9688 272.363C74.1938 258.062 73.7048 259.201 72.6268 259.201C71.8008 259.201 64.9828 272.159 61.6738 280.018L60.2778 283.335L56.5698 280.16C54.5298 278.414 51.4878 275.571 49.8098 273.843C30.7678 254.232 8.33278 233.1 7.25878 233.764C6.38678 234.303 13.8748 242.234 31.2568 259.178L56.5238 283.808L51.9938 286.672C48.6828 288.764 46.9108 290.818 45.4118 294.303C44.2838 296.926 43.3628 299.888 43.3648 300.886C43.3698 303.638 47.1158 309.201 48.9628 309.201C50.1948 309.201 50.4228 309.752 49.8958 311.451C46.1038 323.675 43.9348 343.163 45.2498 353.201C45.7178 356.776 46.0298 359.792 45.9438 359.904C45.8578 360.016 44.2288 358.012 42.3238 355.45C38.5998 350.442 34.0698 347.308 29.0208 346.248L25.8608 345.584L26.0768 336.021C26.1958 330.762 26.7328 324.5 27.2708 322.107C28.1908 318.013 28.0248 316.203 26.8398 317.389C25.8768 318.351 23.3638 334.646 23.3618 339.932C23.3608 344.824 23.1828 345.202 20.6108 345.772C11.8068 347.721 4.87978 352.362 1.75378 358.407C-3.39122 368.357 3.50478 381.413 13.0838 379.859C18.0648 379.05 20.3608 376.631 20.3608 372.192C20.3608 366.846 16.7308 363.201 11.4088 363.201C7.80378 363.201 7.36078 362.938 7.36078 360.805C7.36078 357.628 13.0868 352.663 17.7608 351.786C22.6528 350.868 23.3588 351.525 23.3738 357.01C23.3978 365.471 27.0738 380.26 31.2418 388.667L35.1918 396.633L32.7148 400.86C29.6488 406.092 24.2548 411.716 17.9868 416.218C15.3588 418.106 13.6938 419.812 14.2878 420.01C16.3768 420.706 27.9248 413.289 33.5608 407.632L39.2608 401.909L44.9558 407.114C54.2618 415.619 69.0178 422.018 84.5698 424.292C89.7038 425.043 98.7318 425.286 108.925 424.95L125.122 424.415L126.826 431.058C129.942 443.202 131.12 445.631 133.444 444.697C135.785 443.757 141.361 434.755 141.361 431.916C141.361 428.075 138.347 426.762 133.846 428.643C130.344 430.106 130.268 430.087 129.282 427.493C128.731 426.043 128.482 424.329 128.729 423.686C128.976 423.042 133.567 421.297 138.931 419.809C144.296 418.321 150.681 416.194 153.121 415.083C155.56 413.971 158.211 413.313 159.011 413.62C159.81 413.927 160.203 413.755 159.883 413.237C159.564 412.72 163.478 410.204 168.582 407.647C173.685 405.09 179.637 401.694 181.808 400.1C183.979 398.505 186.132 397.201 186.592 397.201C187.052 397.201 187.348 400.126 187.25 403.701C187.151 407.276 187.024 410.197 186.966 410.192C185.456 410.06 177.532 405.363 178.012 404.884C178.387 404.508 178.169 404.201 177.528 404.201C176.886 404.201 176.361 404.621 176.361 405.134C176.361 405.647 175.349 406.387 174.111 406.78C166.624 409.154 160.372 416.004 160.365 421.84C160.359 426.765 163.007 429.09 170.01 430.309C175.359 431.24 176.53 431.148 179.01 429.605C187.817 424.126 189.127 421.343 189.976 406.315L190.661 394.196L196.261 390.496C207.363 383.159 226.964 368.798 231.861 364.413L236.861 359.935L237.158 367.224C237.524 376.209 237.218 377.087 233.94 376.461C231.7 376.033 231.361 376.311 231.361 378.584C231.361 380.496 231.877 381.201 233.278 381.201C234.332 381.201 235.421 380.639 235.698 379.951C235.975 379.264 236.194 384.92 236.186 392.522C236.172 405.015 236.012 406.27 234.516 405.588C233.606 405.173 230.556 404.653 227.738 404.432C213.384 403.307 202.233 419.946 213.452 425.748C221.2 429.755 234.681 424.117 237.275 415.786C237.804 414.089 238.536 407.526 238.902 401.201C239.269 394.876 239.72 389.45 239.906 389.143C240.091 388.835 240.33 381.545 240.436 372.941L240.631 357.297L251.246 348.363C257.084 343.449 265.911 336.048 270.861 331.917C275.811 327.785 285.251 319.859 291.839 314.303C298.428 308.747 304.278 304.217 304.839 304.236C305.401 304.256 306.986 304.915 308.361 305.701C314.294 309.093 326.192 306.154 329.535 300.472C330.431 298.948 331.495 295.001 331.899 291.701C332.302 288.401 332.697 285.251 332.775 284.701C333.155 282.027 333.024 282.13 354.861 267.435C370.595 256.848 370.831 256.743 372.185 259.715C372.792 261.046 375.172 263.501 377.475 265.168C381.268 267.916 382.379 268.201 389.315 268.201C396.022 268.201 397.519 267.849 401.415 265.352C403.86 263.786 406.657 261.604 407.629 260.504C408.601 259.404 410.995 252.698 412.949 245.602C414.902 238.507 416.674 232.153 416.887 231.483C417.791 228.637 451.049 216.402 469.181 212.246C480.461 209.659 498.361 208.32 498.361 210.063C498.361 210.703 497.477 214.258 496.395 217.964C495.314 221.669 493.658 227.401 492.714 230.701C491.77 234.001 490.881 236.863 490.737 237.06C490.594 237.258 489.213 236.539 487.669 235.463C476.612 227.759 460.117 230.952 454.486 241.885C451.831 247.04 454.88 253.914 461.345 257.349C466.829 260.264 477.564 259.901 484.237 256.575C490.716 253.347 489.464 256.285 499.484 220.814L502.841 208.927L513.851 209.534C527.268 210.273 544.613 213.812 561.566 219.269L574.271 223.358L570.945 226.684C568.966 228.663 567.34 231.502 566.928 233.696C565.531 241.144 573.78 251.557 583.136 254.155C592.076 256.638 603.333 254.755 607.724 250.042L609.667 247.956L611.58 250.328C628.187 270.932 636.752 291.058 640.892 319.201C641.673 324.511 642.183 326.272 642.251 323.893C642.529 314.24 638.465 296.33 631.97 278.586C629.697 272.375 621.247 258.153 616.01 251.725C613.453 248.586 611.361 245.605 611.361 245.101C611.361 243.653 622.594 221.201 623.318 221.201C624.191 221.201 629.399 226.815 632.826 231.451C634.351 233.514 635.075 235.201 634.434 235.201C633.794 235.201 632.166 236.306 630.816 237.656C624.088 244.383 632.458 258.513 644.807 261.276C650.24 262.492 650.414 262.638 651.776 267.112C652.545 269.636 653.873 273.276 654.728 275.201C656.122 278.339 656.283 278.442 656.289 276.201C656.293 274.826 655.425 271.226 654.361 268.201C653.297 265.176 652.412 262.18 652.394 261.543C652.353 260.114 663.159 251.462 703.057 220.98C720.561 207.607 719.824 208.264 718.638 207.078C717.883 206.323 713.632 209.034 704.084 216.356C696.666 222.046 683.97 231.785 675.87 237.999C656.192 253.096 656.526 252.887 655.807 250.559C653.447 242.916 647.609 237.153 640.207 235.16C638.092 234.59 636.361 233.731 636.361 233.252C636.361 232.772 633.69 229.111 630.426 225.115C624.835 218.273 624.565 217.702 625.782 215.276C626.492 213.86 629.918 206.892 633.394 199.793L639.715 186.885L647.067 194.554C654.887 202.709 663.734 215.549 667.389 224.044C669.667 229.339 672.128 231.386 670.283 226.451C667.466 218.914 658.364 204.57 650.282 194.928L641.252 184.154L647.391 171.428C650.767 164.428 654.504 156.574 655.695 153.975C656.886 151.375 658.4 149.238 659.058 149.225C659.717 149.212 663.486 152.914 667.434 157.451C673.874 164.853 677.338 169.61 682.789 178.538C683.741 180.098 684.777 181.119 685.089 180.806C686.326 179.569 675.458 163.63 667.735 155.354L659.558 146.591L663.481 138.835C665.639 134.57 667.143 130.657 666.824 130.14C665.346 127.75 663.113 129.795 659.729 136.64L656.05 144.079L650.456 139.86C647.379 137.54 642.948 134.411 640.611 132.907C636.43 130.217 636.361 130.079 636.335 124.437C636.283 112.806 629.93 99.689 617.64 85.839C613.668 81.363 610.406 77.191 610.39 76.567C610.36 75.383 621.419 78.228 632.861 82.35C644.22 86.441 660.523 95.183 669.803 102.157C679.988 109.813 693.682 123.709 696.159 128.904C697.53 131.778 699.361 133.331 699.361 131.62C699.361 129.663 690.706 118.498 683.883 111.654C667.153 94.872 644.006 82.52 611.438 72.995C607.752 71.916 606.813 71.118 605.801 68.201C604.567 64.642 604.473 64.693 602.853 69.805C602.573 70.687 601.718 71.168 600.954 70.875C598.359 69.879 567.508 67.959 560.885 68.38C554.48 68.788 554.285 68.729 553.814 66.25C551.353 53.305 548.179 46.688 540.181 37.826C531.107 27.772 520.476 21.317 503.16 15.346C489.131 10.509 484.482 8.208 479.334 3.557L475.396 0L476.805 4.351ZM653.799 20.95C646.15 25.322 641.361 31.394 641.361 36.718C641.361 38.499 640.667 40.532 639.819 41.236C638.79 42.09 638.61 42.85 639.276 43.516C639.943 44.183 640.8 44.081 641.848 43.212C643.069 42.198 643.982 42.163 645.938 43.054C649.723 44.779 653.314 44.436 658.946 41.814C665.503 38.761 670.126 33.819 671.527 28.366C672.14 25.981 673.253 23.796 674.001 23.509C676.667 22.486 675.412 20.344 672.111 20.284C670.323 20.251 666.161 19.994 662.861 19.712C658.274 19.32 656.14 19.612 653.799 20.95ZM658.814 24.362C660.215 25 661.347 26.012 661.33 26.612C661.291 27.95 651.188 34.212 650.125 33.555C649.024 32.875 649.185 29.398 650.426 27.079C651.277 25.49 653.282 24.133 656.064 23.264C656.176 23.23 657.413 23.723 658.814 24.362ZM510.631 30.277C528.972 36.413 542.664 47.777 547.951 61.253C549.453 65.081 550.497 68.383 550.271 68.591C550.046 68.799 543.561 70.177 535.861 71.654C528.161 73.131 518.527 75.454 514.452 76.817C510.378 78.179 506.551 79.104 505.949 78.873C504.696 78.392 504.891 78.93 495.43 49.886C491.521 37.888 488.532 27.733 488.787 27.32C489.548 26.089 503.932 28.036 510.631 30.277ZM664.361 32.512C664.361 37.464 657.679 40.953 653.39 38.24C651.669 37.152 652.116 36.609 657.693 33.015C662.878 29.674 664.361 29.562 664.361 32.512ZM595.332 73.308C598.891 73.859 601.949 74.455 602.126 74.633C602.304 74.81 601.558 79.398 600.469 84.828C599.38 90.258 597.739 98.863 596.821 103.951C595.904 109.039 594.779 113.201 594.322 113.201C593.866 113.201 590.2 112.446 586.176 111.522C574.887 108.932 538.296 109.136 525.111 111.863L515.361 113.88V110.738C515.361 109.009 513.567 102.669 511.373 96.648C509.18 90.627 507.38 85.145 507.373 84.464C507.367 83.784 508.825 82.616 510.614 81.869C515.795 79.704 538.268 74.316 545.111 73.598L551.361 72.943L551.447 81.822C551.542 91.632 552.666 90.2 553.898 78.701L554.585 72.287L561.223 71.881C570.038 71.341 587.29 72.063 595.332 73.308ZM505.221 90.253L507.265 96.305L505.063 95.503C503.852 95.062 499.261 94.701 494.861 94.701C485.951 94.701 480.486 96.774 474.398 102.464C470.735 105.887 467.414 112.393 467.387 116.201C467.365 119.12 470.777 125.1 473.587 127.071C475.394 128.337 474.764 128.852 465.201 133.919C446.801 143.668 413.303 164.875 405.21 171.899C404.302 172.687 403.338 172.964 403.068 172.516C402.797 172.068 402.508 166.516 402.425 160.18C402.254 147.102 402.006 147.583 413.072 139.505C458.174 106.582 469.333 99.636 498.361 86.419C500.836 85.292 502.932 84.332 503.019 84.285C503.106 84.239 504.097 86.924 505.221 90.253ZM609.671 92.711C618.499 99.452 628.541 114.478 630.946 124.545L631.625 127.389L628.743 125.917C622.498 122.726 616.447 120.265 607.103 117.116C599.608 114.59 597.447 113.465 597.787 112.264C598.03 111.404 598.95 106.876 599.832 102.201C602.251 89.368 602.301 89.201 603.736 89.201C604.472 89.201 607.142 90.781 609.671 92.711ZM583.861 114.276C587.711 114.905 591.603 115.811 592.509 116.291C594.31 117.243 594.425 116.291 590.241 135.04L588.156 144.379L585.509 141.972C579.576 136.579 577.27 135.715 568.787 135.708C561.443 135.702 560.373 135.959 556.968 138.554C554.909 140.123 552.762 142.421 552.198 143.66C551.231 145.781 550.344 145.96 537.016 146.727C517.828 147.832 517.077 147.895 515.361 148.536C514.536 148.845 509.132 150.211 503.351 151.572C497.571 152.933 489.021 155.443 484.351 157.151C476.2 160.131 459.939 163.007 441.361 164.755C437.236 165.143 433.118 165.844 432.21 166.313C431.211 166.829 429.671 170.526 428.313 175.664C426.559 182.305 425.499 184.543 423.465 185.902C417.408 189.948 403.837 198.005 403.553 197.724C403.383 197.555 402.989 192.945 402.677 187.479L402.11 177.541L406.485 173.98C416.621 165.731 446.581 147.148 465.757 137.215C478.662 130.532 478.956 130.436 485.106 130.934C491.998 131.493 497.377 130.433 504.891 127.036C507.625 125.801 510.254 124.901 510.734 125.037C511.214 125.172 511.362 124.645 511.063 123.866C510.532 122.484 514.034 120.201 516.686 120.201C517.363 120.201 518.653 119.341 519.553 118.29C521.293 116.257 528.287 114.485 539.861 113.142C548.75 112.112 574.701 112.78 583.861 114.276ZM615.077 123.05C619.596 124.742 625.167 127.082 627.458 128.25L631.623 130.375L631.105 136.085C630.752 139.984 629.273 144.476 626.442 150.248C622.361 158.57 622.344 158.647 625.374 155.201C628.881 151.213 635.361 138.836 635.361 136.126C635.361 135.132 635.801 134.047 636.339 133.715C637.121 133.231 645.418 138.391 653.887 144.628C654.844 145.333 653.119 149.644 646.688 162.628C642.036 172.018 637.908 180.03 637.515 180.432C637.122 180.834 634.338 179.119 631.33 176.622C623.809 170.379 609.434 161.883 599.532 157.83C594.992 155.971 591.041 154.215 590.753 153.926C590.464 153.637 591.343 147.394 592.706 140.051C594.069 132.709 595.49 124.904 595.864 122.709C596.237 120.513 596.728 118.416 596.954 118.05C597.49 117.184 604.775 119.194 615.077 123.05ZM517.09 118.805C516.758 119.137 515.895 119.173 515.174 118.884C514.376 118.565 514.613 118.328 515.778 118.28C516.832 118.237 517.422 118.473 517.09 118.805ZM317.268 125.261C324.285 129.038 329.594 133.925 333.401 140.112C337.077 146.085 337.121 146.814 333.611 143.541C327.992 138.302 322.221 135.102 312.325 131.737C306.735 129.836 301.576 127.794 300.859 127.2C299.347 125.944 298.054 121.506 298.834 120.245C299.691 118.858 311.179 121.984 317.268 125.261ZM364.992 121.989C364.495 122.793 357.361 156.78 357.361 158.343C357.361 159.959 362.859 159.195 366.361 157.092C376.935 150.744 377.188 144.201 366.859 144.201C363.869 144.201 363.318 143.891 363.744 142.451C364.509 139.863 367.361 124.203 367.361 122.591C367.361 121.095 365.791 120.697 364.992 121.989ZM138.386 137.451C145.829 142.494 145.851 153.184 138.452 168.701C133.866 178.319 125.603 189.843 124.258 188.498C122.718 186.958 119.361 167.642 119.361 160.324C119.361 148.627 123.092 140.062 129.579 136.864C133.868 134.75 134.458 134.789 138.386 137.451ZM208.802 160.201C209.2 173.951 209.152 185.187 208.694 185.169C208.236 185.152 206.987 184.477 205.92 183.669C203.066 181.51 194.544 181.792 190.638 184.174C185 187.611 185 194.791 190.638 198.228C196.71 201.931 207.691 200.19 210.419 195.092C211.211 193.613 211.326 186.607 210.813 171.102C210.11 149.843 210.145 149.201 212.029 149.201C217.444 149.201 231.405 162.094 233.272 168.819C234.66 173.819 234.65 179.072 233.245 183.103C231.71 187.508 232.829 188.118 234.974 184.044C236.142 181.826 236.756 178.346 236.798 173.701C236.901 162.259 231.472 153.656 217.825 143.637C214.296 141.046 211.142 138.088 210.817 137.064C210.492 136.039 209.743 135.201 209.151 135.201C208.394 135.201 208.291 142.59 208.802 160.201ZM317.836 142.802C325.44 145.846 333.535 152.681 338.265 160.051C342.761 167.058 342.08 167.558 336.056 161.676C330.767 156.513 329.512 155.89 310.009 148.737C306.216 147.346 304.852 146.227 303.759 143.612C302.99 141.771 302.361 139.965 302.361 139.597C302.361 138.32 311.225 140.155 317.836 142.802ZM371.17 149.874C371.407 151.535 370.443 152.655 367.083 154.624C364.664 156.041 362.387 157.201 362.023 157.201C361.026 157.201 361.228 152.68 362.359 149.706C363.227 147.422 363.846 147.12 367.109 147.391C370.08 147.636 370.925 148.153 371.17 149.874ZM552.378 153.241C553.07 154.913 555.401 157.791 557.557 159.637C566.119 166.966 579.801 166.942 587.481 159.585L590.101 157.076L597.981 160.119C607.822 163.92 619.41 170.49 628.988 177.699L636.353 183.242L628.744 198.472C624.559 206.848 621.056 213.794 620.959 213.907C620.862 214.02 617.266 211.252 612.967 207.756C598.3 195.827 580.48 187.583 559.455 183C552.261 181.432 545.036 180.794 530.577 180.448C513.293 180.035 511.343 179.817 511.767 178.344C512.027 177.441 513.366 172.876 514.741 168.201C517.779 157.878 518.161 155.653 516.861 155.86C516.311 155.948 513.161 156.262 509.861 156.56C506.561 156.857 501.386 157.352 498.361 157.66C494.474 158.055 493.594 157.954 495.361 157.318C508.106 152.728 521.466 150.693 540.99 150.369L551.118 150.201L552.378 153.241ZM399.254 164.109L399.4 176.054L393.432 180.646C390.15 183.172 384.634 186.692 381.173 188.47C377.585 190.313 373.999 193.03 372.827 194.795C371.696 196.496 364.941 202.756 357.816 208.706C350.691 214.656 343.789 220.464 342.478 221.612L340.096 223.701L340.788 217.366C341.418 211.594 341.319 211.062 339.67 211.379C338.249 211.652 337.713 213.07 337.168 217.997C336.186 226.882 336.014 227.208 329.672 232.203C326.53 234.677 321.585 238.726 318.684 241.201C310.197 248.441 290.559 264.467 282.817 270.472L280.533 272.242L280.197 265.615L279.861 258.988L284.089 255.094C286.414 252.953 288.724 251.201 289.222 251.201C289.72 251.201 290.363 250.301 290.651 249.201C291.105 247.464 292.015 247.201 297.58 247.201C312.947 247.201 325.43 235.474 322.49 223.798L321.368 219.342L328.614 212.399C340.133 201.364 359.97 183.555 372.836 172.701C379.356 167.201 387.653 160.17 391.275 157.075C394.897 153.981 398.142 151.61 398.485 151.806C398.828 152.003 399.174 157.538 399.254 164.109ZM246.361 156.201C246.361 156.751 247.009 157.201 247.802 157.201C248.595 157.201 249.521 156.751 249.861 156.201C250.201 155.651 249.552 155.201 248.42 155.201C247.288 155.201 246.361 155.651 246.361 156.201ZM325.021 163.746C329.66 165.977 334.259 169.146 336.983 171.989C341.699 176.911 347.385 187.15 347.325 190.611C347.301 191.982 342.987 196.655 334.777 204.201C327.896 210.526 321.893 215.832 321.438 215.993C320.983 216.153 320.389 215.253 320.118 213.993C319.848 212.732 318.188 205.626 316.429 198.201C314.67 190.776 312.149 179.976 310.827 174.201C309.505 168.426 308.113 162.617 307.734 161.293C307.055 158.918 307.116 158.893 312.266 159.503C315.137 159.843 320.877 161.753 325.021 163.746ZM507.177 177.895C506.869 180.519 506.533 180.649 494.3 182.874C475.206 186.348 455.504 192.844 435.646 202.21C429.813 204.962 424.858 207.031 424.635 206.808C424.191 206.364 425.428 201.33 428.523 190.991C430.017 186 431.082 184.107 432.683 183.599C433.866 183.223 436.416 181.894 438.348 180.646C442.1 178.221 445.334 177.931 482.807 176.652C491.028 176.371 497.965 175.93 498.224 175.671C498.483 175.413 500.674 175.201 503.094 175.201C507.283 175.201 507.479 175.33 507.177 177.895ZM434.363 179.655C431.688 181.135 430.754 180.992 431.82 179.268C432.182 178.681 433.465 178.217 434.67 178.236C436.783 178.271 436.772 178.321 434.363 179.655ZM399.361 184.808C399.361 188.787 399.122 189.323 397.611 188.738C396.649 188.366 394.623 187.811 393.111 187.506C391.599 187.201 390.361 186.618 390.361 186.211C390.361 185.415 397.369 180.361 398.611 180.261C399.024 180.228 399.361 182.274 399.361 184.808ZM559.361 186.189C578.066 190.113 595.005 197.558 609.247 208.117C620.467 216.434 620.178 215.613 615.307 225.349C613.009 229.943 610.999 233.845 610.841 234.021C610.683 234.197 608.556 232.344 606.114 229.902C600.141 223.928 591.982 220.817 584.104 221.508C579.738 221.891 577.407 221.559 574.46 220.135C562.11 214.168 535.059 208.123 514.111 206.649C508.749 206.272 504.361 205.551 504.361 205.047C504.361 204.013 509.034 188.972 510.493 185.312L511.445 182.923L530.153 183.455C543.912 183.846 551.639 184.57 559.361 186.189ZM505.097 185.451C504.833 186.139 503.618 191.031 502.396 196.323L500.173 205.946L493.517 206.503C471.515 208.345 446.501 215.042 426.861 224.349C423.011 226.173 419.464 227.844 418.979 228.061C417.204 228.855 421.467 212.637 423.565 210.616C424.929 209.302 442.321 201.638 453.361 197.488C466.032 192.723 477.952 189.168 484.861 188.091C488.711 187.491 494.111 186.4 496.861 185.666C503.334 183.94 505.699 183.878 505.097 185.451ZM422.869 195.34C421.986 198.839 420.612 203.726 419.814 206.201C418.277 210.966 418.586 210.746 394.928 223.949C389.118 227.191 361.337 245.332 347.611 254.845C341.149 259.325 335.796 262.925 335.716 262.845C335.636 262.766 335.808 259.453 336.098 255.483L336.625 248.266L345.743 241.381C358.995 231.374 373.194 221.117 378.361 217.818C380.836 216.238 383.761 214.178 384.861 213.24C385.961 212.302 389.111 210.709 391.861 209.7C394.611 208.691 398.211 206.44 399.861 204.697C401.511 202.953 405.336 199.958 408.361 198.04C421.717 189.57 423.814 188.321 424.134 188.64C424.32 188.827 423.751 191.842 422.869 195.34ZM393.858 191.635C400.492 194.407 399.455 201.525 391.882 205.191C386.263 207.911 381.164 207.796 377.765 204.872C375.568 202.982 375.188 202.025 375.75 199.787C376.67 196.12 380.616 192.601 385.163 191.391C390.252 190.038 390.019 190.031 393.858 191.635ZM257.861 197.201C257.521 197.751 257.945 198.201 258.802 198.201C259.659 198.201 260.361 197.751 260.361 197.201C260.361 196.651 259.938 196.201 259.42 196.201C258.902 196.201 258.201 196.651 257.861 197.201ZM371.361 203.112C371.361 205.325 376.725 210.194 379.188 210.216C380.108 210.225 381.487 210.628 382.252 211.112C383.326 211.792 382.834 212.531 380.098 214.347C372.202 219.59 356.587 230.715 352.361 234.108C346.137 239.107 338.311 244.485 337.885 244.057C337.691 243.861 338.056 239.773 338.696 234.972C339.639 227.904 340.337 225.771 342.361 223.764C345.98 220.176 369.724 201.219 370.611 201.209C371.024 201.205 371.361 202.061 371.361 203.112ZM262.511 203.151C262.731 203.811 263.237 204.317 263.636 204.276C264.832 204.152 264.6 202.781 263.311 202.351C262.651 202.131 262.291 202.491 262.511 203.151ZM267.861 203.201C268.201 203.751 268.677 204.201 268.92 204.201C269.163 204.201 269.361 203.751 269.361 203.201C269.361 202.651 268.884 202.201 268.302 202.201C267.72 202.201 267.521 202.651 267.861 203.201ZM129.891 226.305C133.629 239.023 133.685 239.44 131.802 240.484C129.084 241.99 124.51 247.011 122.743 250.43C119.182 257.314 120.089 267.912 124.731 273.672L127.126 276.644L126.68 269.672C126.152 261.394 127.938 257.025 133.323 253.428L136.785 251.115L137.64 253.408C139.072 257.245 151.399 300.501 151.121 300.709C149.354 302.033 142.586 303.201 136.68 303.201C128.625 303.201 119.781 300.757 113.532 296.804C108.023 293.32 101.509 285.752 98.5298 279.376C96.1928 274.373 95.8778 272.457 95.8698 263.201C95.8618 253.786 96.1498 252.084 98.6558 246.733C100.193 243.45 103.311 238.275 105.586 235.233C109.945 229.403 124.445 213.365 125.451 213.262C125.775 213.228 127.774 219.098 129.891 226.305ZM416.906 216.951C413.703 230.06 413.928 229.731 404.552 235.03C397.336 239.108 394.973 239.954 390.633 240.014C382.114 240.132 373.016 245.839 371.75 251.858C371.285 254.071 369.38 255.809 363.152 259.701C358.752 262.451 350.448 267.963 344.699 271.951C338.95 275.939 334.103 279.201 333.927 279.201C333.56 279.201 334.269 270.742 334.898 267.614C335.311 265.559 365.229 244.15 378.922 236.11C382.286 234.135 387.033 231.147 389.472 229.468C391.911 227.79 397.947 224.269 402.884 221.644C407.821 219.018 412.749 216.27 413.834 215.536C416.807 213.523 417.649 213.911 416.906 216.951ZM335.229 237.201C334.747 241.326 333.944 245.647 333.445 246.804C332.652 248.642 311.19 265.442 302.861 270.745C301.211 271.795 299.574 273.06 299.223 273.556C298.872 274.052 298.073 274.141 297.448 273.755C296.823 273.368 296.435 273.463 296.586 273.964C296.898 275 272.851 294.91 241.911 319.232L220.961 335.701L210.411 336.835C204.608 337.459 199.725 337.849 199.56 337.701C199.278 337.449 219.32 322.791 225.19 318.956C226.659 317.997 228.986 317.199 230.361 317.184C236.88 317.113 247.348 308.723 248.888 302.334C249.335 300.482 253.579 296.534 263.192 289.029L276.861 278.356L277.426 282.029L277.992 285.701L279.176 282.886C279.828 281.338 280.361 279.186 280.361 278.105C280.361 276.09 282.408 274.056 292.861 265.686C296.161 263.044 300.895 259.041 303.382 256.791C309.379 251.365 317.921 244.081 322.854 240.186C325.05 238.453 327.075 236.733 327.354 236.366C328.389 235.003 335.581 229.089 335.838 229.389C335.985 229.561 335.711 233.076 335.229 237.201ZM246.861 236.751C259.014 241.235 266.932 247.345 272.004 256.153L274.148 259.875L269.504 264.324C261.969 271.544 245.315 285.488 244.82 284.993C244.262 284.435 227.361 234.763 227.361 233.681C227.361 232.21 239.906 234.184 246.861 236.751ZM411.361 235.681C411.361 237.453 408.349 245.201 407.66 245.201C407.394 245.201 406.032 244.301 404.634 243.201C403.235 242.101 401.477 241.201 400.726 241.201C398.054 241.201 399.526 239.664 404.656 237.097C411.043 233.902 411.361 233.835 411.361 235.681ZM183.793 238.311C183.391 238.961 181.709 239.195 179.734 238.874C176.164 238.295 175.418 239.173 177.801 241.151C178.593 241.808 179.38 243.326 179.551 244.524C179.721 245.721 180.424 246.757 181.111 246.826C183.516 247.067 183.596 247.213 182.233 248.893C181.477 249.825 181.386 250.27 182.031 249.883C182.698 249.483 184.061 250.275 185.201 251.725C187.416 254.541 189.023 253.455 187.395 250.242C186.826 249.119 185.911 247.307 185.361 246.215C183.774 243.063 184.19 240.39 186.376 239.696C187.484 239.345 188.132 238.639 187.817 238.129C187.028 236.853 184.627 236.962 183.793 238.311ZM643.101 247.278C647.889 255.661 648.232 257.201 645.311 257.201C639.956 257.201 632.361 250.151 632.361 245.181C632.361 242.303 635.726 238.829 637.842 239.522C638.403 239.705 640.769 243.196 643.101 247.278ZM646.822 242.739C648.653 244.135 650.698 246.602 651.369 248.22C652.569 251.116 652.052 256.201 650.559 256.201C650.138 256.201 647.936 252.601 645.664 248.201C643.393 243.801 641.975 240.201 642.514 240.201C643.053 240.201 644.992 241.343 646.822 242.739ZM279.111 243.094C278.149 244.07 277.638 245.145 277.976 245.483C278.867 246.374 283.447 243.15 282.793 242.092C282.009 240.823 281.11 241.068 279.111 243.094ZM254.361 246.772C254.361 249.037 257.151 251.496 258.941 250.809C260.277 250.296 260.243 249.909 258.666 247.743C256.62 244.933 254.361 244.423 254.361 246.772ZM279.461 249.496C278.196 251.603 278.218 251.624 279.94 249.975C280.931 249.025 281.527 248.033 281.264 247.77C281.001 247.507 280.19 248.284 279.461 249.496ZM160.481 250.863C164.303 252.943 165.916 254.638 167.858 258.613C174.692 272.605 172.631 285.612 162.053 295.237C158.513 298.459 157.481 298.803 156.919 296.951C156.71 296.264 154.636 289.626 152.309 282.201C143.892 255.336 142.447 249.767 143.69 248.977C146.513 247.181 155.589 248.2 160.481 250.863ZM281.233 250.951C279.99 252.537 280.025 252.572 281.611 251.329C283.277 250.022 283.806 249.201 282.983 249.201C282.776 249.201 281.988 249.989 281.233 250.951ZM332.324 259.18C331.419 266.516 331.622 266.29 317.361 275.916C305.876 283.669 283.158 301.787 249.612 329.947L244.364 334.353L234.612 334.788C225.051 335.215 224.911 335.189 227.445 333.462C228.865 332.493 238.907 324.501 249.759 315.701C267.557 301.269 283.579 288.786 319.068 261.701C325.554 256.751 331.024 252.324 331.224 251.864C331.423 251.403 331.932 251.403 332.354 251.864C332.777 252.324 332.763 255.616 332.324 259.18ZM254.797 255.599C253.664 260.113 254.636 262.675 257.611 263.017C260.558 263.357 261.2 261.745 259.434 258.437C258.924 257.482 258.263 255.913 257.965 254.951C257.19 252.447 255.502 252.792 254.797 255.599ZM211.361 257.26C211.361 257.842 211.811 258.041 212.361 257.701C212.911 257.361 213.361 256.885 213.361 256.642C213.361 256.399 212.911 256.201 212.361 256.201C211.811 256.201 211.361 256.678 211.361 257.26ZM247.378 261.487C244.168 263.111 242.317 267.929 244.397 269.245C245.394 269.875 245.462 270.175 244.611 270.186C243.924 270.194 243.361 270.651 243.361 271.201C243.361 272.947 245.055 272.29 248.255 269.3C250.437 267.261 251.361 265.477 251.361 263.3C251.361 259.854 250.963 259.673 247.378 261.487ZM276.922 268.846C277.542 273.804 277.381 274.687 275.605 276.096C274.492 276.979 268.122 282.153 261.448 287.594C254.774 293.035 249.148 297.31 248.946 297.094C248.743 296.878 247.875 294.676 247.016 292.201C245.457 287.708 245.459 287.697 248.158 285.514C249.645 284.312 256.261 278.838 262.861 273.35C269.461 267.861 275.166 263.333 275.539 263.286C275.912 263.239 276.534 265.741 276.922 268.846ZM259.028 266.868C258.661 267.234 258.361 268.134 258.361 268.868C258.361 270.638 261 270.583 261.685 268.799C262.493 266.693 260.587 265.308 259.028 266.868ZM330.968 270.783C330.634 271.653 330.361 274.162 330.361 276.36C330.361 279.392 329.693 281.023 327.59 283.126C325.118 285.598 324.337 285.828 320.34 285.257C317.877 284.905 314.114 284.989 311.979 285.444C309.844 285.898 307.967 286.141 307.809 285.982C307.411 285.585 329.656 269.358 330.718 269.271C331.189 269.233 331.302 269.913 330.968 270.783ZM214.396 275.135C213.072 277.609 213.093 278.201 214.501 278.201C215.664 278.201 218.272 275.306 218.329 273.951C218.396 272.381 215.385 273.288 214.396 275.135ZM484.017 275.407C483.477 277.474 483.895 279.051 484.737 278.118C485.755 276.989 486.378 273.201 485.545 273.201C485.022 273.201 484.335 274.194 484.017 275.407ZM619.243 273.951C619.177 274.364 619.177 275.038 619.243 275.451C619.308 275.864 618.911 276.201 618.361 276.201C617.811 276.201 617.397 277.663 617.44 279.451C617.483 281.239 617.767 282.026 618.07 281.201C618.955 278.795 621.553 276.201 622.495 276.784C623.874 277.636 623.498 276.195 621.932 274.63C620.35 273.047 619.422 272.813 619.243 273.951ZM490.728 284.572C489.469 286.01 490.713 289.201 492.533 289.201C493.264 289.201 493.243 288.764 492.466 287.828C491.839 287.072 491.607 285.722 491.951 284.828C492.694 282.89 492.277 282.802 490.728 284.572ZM329.361 286.642C329.361 286.885 328.911 287.361 328.361 287.701C327.811 288.041 327.361 287.842 327.361 287.26C327.361 286.678 327.811 286.201 328.361 286.201C328.911 286.201 329.361 286.399 329.361 286.642ZM303.836 290.413C301.494 293.196 301.206 294.244 301.681 298.251L302.228 302.877L286.645 315.789C278.074 322.891 269.846 329.831 268.361 331.212C263.177 336.034 242.571 353.201 241.969 353.201C241.198 353.201 241.168 341.868 241.933 339.873C242.248 339.053 247.052 334.628 252.609 330.041C276.644 310.199 281.299 306.378 288.357 300.701C295.948 294.594 305.586 287.326 306.2 287.245C306.386 287.221 305.322 288.647 303.836 290.413ZM285.21 334.589C276.71 336.878 271.993 341.7 270.731 349.389C270.398 351.418 269.503 353.316 268.743 353.608C266.231 354.572 267.229 356.459 269.973 355.935C271.409 355.66 273.772 356.055 275.223 356.812C280.449 359.539 287.916 357.865 296.425 352.059C300.391 349.352 301.376 348.07 301.907 344.928C302.269 342.785 303.393 340.574 304.458 339.909C307.29 338.14 306.818 336.143 303.611 336.324C302.099 336.41 299.511 335.744 297.861 334.846C294.344 332.932 291.571 332.875 285.21 334.589ZM288.796 339.176C290.207 339.713 291.361 340.54 291.361 341.016C291.361 342.021 286.322 344.496 285.648 343.822C285.399 343.572 284.315 344.247 283.241 345.321C280.89 347.672 279.038 346.865 279.907 343.867C280.545 341.665 283.907 338.201 285.407 338.201C285.86 338.201 287.385 338.64 288.796 339.176ZM230.361 345.201C228.986 346.277 226.916 347.167 225.762 347.179C224.607 347.191 220.107 347.482 215.762 347.825C208.569 348.392 207.995 348.306 209.361 346.86C210.672 345.473 217.216 344.431 231.361 343.359C232.288 343.289 231.906 343.992 230.361 345.201ZM238.361 344.584C238.361 345.933 233.911 347.418 232.9 346.407C232.233 345.74 235.505 343.274 237.111 343.233C237.799 343.215 238.361 343.824 238.361 344.584ZM156.716 349.928C152.585 355.461 140.335 359.047 133.943 356.594C131.538 355.671 132.054 354.201 134.783 354.201C137.28 354.201 152.599 349.287 155.954 347.409C158.712 345.866 159.011 346.854 156.716 349.928ZM203.92 347.733C201.792 349.342 193.361 349.767 193.361 348.264C193.361 347.346 196.905 346.647 202.861 346.393C205.707 346.271 205.761 346.34 203.92 347.733ZM293.361 347.201C293.361 347.751 292.925 348.201 292.392 348.201C291.86 348.201 291.665 348.829 291.96 349.597C292.883 352.004 288.613 354.185 285.262 353.017C281.285 351.63 281.618 350.449 286.611 348.231C291.488 346.064 293.361 345.778 293.361 347.201ZM49.3958 351.135C47.7618 354.189 48.1668 356.027 50.8608 357.793C53.1768 359.31 53.5448 359.31 55.8608 357.793C58.5398 356.038 59.1768 352.417 57.1608 350.401C55.2598 348.5 50.5688 348.943 49.3958 351.135ZM238.196 354.314C237.969 355.899 234.786 359.034 228.361 364C223.136 368.038 218.183 371.873 217.355 372.522C214.747 374.564 198.01 386.764 194.553 389.143C192.734 390.395 191.024 391.197 190.752 390.925C190.48 390.653 190.618 387.128 191.059 383.091L191.861 375.752L198.849 371.461C202.693 369.101 206.405 367.388 207.099 367.654C207.793 367.92 208.361 367.508 208.361 366.738C208.361 365.967 209.824 364.311 211.611 363.056C213.398 361.801 215.311 360.27 215.861 359.653C216.411 359.036 218.899 356.909 221.391 354.926C225.137 351.945 226.868 351.267 231.391 351.011C237.72 350.652 238.654 351.105 238.196 354.314ZM218.361 354.201C216.986 355.277 215.347 356.167 214.718 356.179C214.089 356.191 213.351 356.764 213.078 357.451C212.804 358.139 210.865 359.601 208.769 360.701C206.672 361.801 203.36 364.158 201.409 365.939C199.457 367.72 196.654 369.599 195.178 370.114L192.495 371.05L192.689 365.045C192.868 359.502 193.151 358.819 196.372 356.173C199.922 353.256 201.371 352.984 216.361 352.416L220.861 352.245L218.361 354.201ZM31.4138 357.136C37.5518 363.588 40.4808 375.487 38.3998 385.512C37.7508 388.641 36.8428 391.201 36.3828 391.201C34.0188 391.201 27.4318 370.722 25.8498 358.451C25.0098 351.938 26.2008 351.656 31.4138 357.136ZM216.549 362.264C216.789 362.985 217.577 363.773 218.299 364.014C219.049 364.264 219.424 363.889 219.174 363.139C218.933 362.417 218.145 361.629 217.424 361.389C216.674 361.139 216.299 361.514 216.549 362.264ZM213.361 364.201C212.079 365.029 212.115 365.173 213.611 365.186C214.574 365.194 215.361 364.751 215.361 364.201C215.361 362.981 215.248 362.981 213.361 364.201ZM211.094 369.325C211.773 370.009 212.58 370.316 212.887 370.008C213.195 369.7 212.64 369.141 211.654 368.765C210.229 368.223 210.114 368.337 211.094 369.325ZM55.7898 371.629C54.9298 375.055 56.0638 377.89 58.5558 378.542C62.9978 379.703 66.5368 375.266 64.3808 371.239C63.6078 369.794 62.2878 369.201 59.8448 369.201C57.0308 369.201 56.2868 369.646 55.7898 371.629ZM50.8418 375.809C54.4848 384.53 64.2128 394.301 73.8018 398.874C76.0798 399.96 77.3608 401.272 77.3608 402.517C77.3608 404.182 77.8658 404.381 80.8608 403.895C84.0758 403.373 84.3608 403.53 84.3608 405.816C84.3608 407.683 83.6108 408.567 81.3608 409.351C79.7108 409.926 78.3608 411.084 78.3608 411.924C78.3608 413.087 79.0748 413.308 81.3608 412.851C84.0318 412.317 84.3608 412.516 84.3608 414.667C84.3608 415.996 84.8108 417.361 85.3608 417.701C85.9408 418.059 86.3608 417.086 86.3608 415.382C86.3608 411.951 87.6428 410.692 92.1108 409.737C95.1018 409.098 95.3608 409.243 95.3608 411.563C95.3608 412.949 95.8108 414.361 96.3608 414.701C96.9428 415.061 97.3608 414.056 97.3608 412.295C97.3608 407.986 100.133 406.885 111.861 406.536C123.322 406.195 129.577 405.116 140.861 401.533C148.442 399.126 160.499 394.289 164.861 391.905C173.245 387.323 177.779 385.342 178.651 385.88C179.234 386.241 179.365 386.016 178.956 385.356C178.564 384.721 178.657 384.201 179.162 384.201C179.668 384.201 181.678 383.118 183.629 381.794C187.108 379.433 187.186 379.426 187.705 381.407C188.241 383.457 187.85 393.104 187.21 393.615C187.018 393.768 183.131 395.97 178.572 398.509L170.282 403.124L169.318 400.587C167.986 397.084 165.595 394.897 163.835 395.572C162.117 396.232 161.829 399.201 163.483 399.201C164.261 399.201 164.224 399.661 163.365 400.696C162.683 401.518 162.361 403.093 162.65 404.197C163.178 406.218 159.405 410.201 156.961 410.201C156.34 410.201 154.253 411.047 152.323 412.081C147.723 414.547 129.36 420.414 127.944 419.871C127.338 419.639 126.276 417.333 125.585 414.747C124.801 411.816 123.863 410.21 123.094 410.481C121.867 410.914 121.854 411.848 122.994 417.856C123.591 421.009 123.587 421.012 117.73 422.228C109.412 423.955 88.0688 422.927 77.5798 420.295C65.6798 417.308 55.0968 411.808 47.5728 404.701L41.2218 398.701L43.8018 393.089C45.2208 390.002 46.9278 384.04 47.5968 379.839C48.2648 375.638 48.9288 372.201 49.0728 372.201C49.2168 372.201 50.0128 373.825 50.8418 375.809ZM220.492 381.072C219.829 381.968 219.555 382.139 219.883 381.451C220.626 379.892 218.735 379.786 217.78 381.333C217.395 381.955 217.869 382.906 218.833 383.446C219.798 383.985 221.436 385.276 222.474 386.314C225.099 388.939 227.233 388.669 228.414 385.562C229.588 382.474 229.812 382.805 225.279 380.927C222.049 379.589 221.579 379.603 220.492 381.072ZM159.861 397.201C159.521 397.751 159.72 398.201 160.302 398.201C160.884 398.201 161.361 397.751 161.361 397.201C161.361 396.651 161.163 396.201 160.92 396.201C160.677 396.201 160.201 396.651 159.861 397.201ZM95.3608 401.201C95.3608 401.751 94.6858 402.201 93.8608 402.201C93.0358 402.201 92.3608 401.751 92.3608 401.201C92.3608 400.651 93.0358 400.201 93.8608 400.201C94.6858 400.201 95.3608 400.651 95.3608 401.201ZM92.7908 405.087C93.0918 405.575 92.3308 406.244 91.0998 406.574C87.5428 407.527 86.3608 407.309 86.3608 405.701C86.3608 404.052 91.8278 403.53 92.7908 405.087ZM138.848 432.159C139.441 434.028 135.674 442.176 134.209 442.193C133.378 442.203 131.361 436.473 131.361 434.101C131.361 430.481 137.786 428.814 138.848 432.159Z" fill="black" fill-opacity="0.16"/>
</svg>
